<svg xmlns="http://www.w3.org/2000/svg" width="24" height="24" viewBox="0 0 24 24"><path d="M11.777 10.068q0 1.047-.8 1.797t-1.925.75-1.924-.75-.8-1.797q0-1.06.8-1.804t1.924-.744 1.924.744.8 1.804zm6.332 0q0 1.047-.796 1.797t-1.93.75q-1.122 0-1.923-.75t-.8-1.797q0-1.06.8-1.804t1.924-.744q1.136 0 1.93.744t.795 1.804zm2.837 2.27V3.924q0-1.097-.403-1.557t-1.4-.46H5.115q-1.047 0-1.42.428t-.37 1.59v8.49q.54.29 1.115.504t1.023.352 1.022.233.895.14.883.05T9 13.7t.714-.025.56-.025q.86-.012 1.2.34.076.077.126.114.328.316.77.644.088-1.148 1.488-1.098.063 0 .46.02t.543.024.575.013.668-.013.688-.056.77-.108.782-.17.846-.246.85-.34.91-.436zm2.057-.063q-1.527 1.88-4.693 3.18 1.06 3.594-.29 5.865-.832 1.425-2.308 1.867-1.312.404-2.296-.19-1.084-.643-1.034-2.068l-.013-4.113v-.013q-.1-.025-.31-.076t-.296-.063l-.013 4.264q.052 1.437-1.046 2.068-.996.593-2.308.19-1.476-.455-2.296-1.893-1.325-2.27-.278-5.84-3.166-1.3-4.692-3.18-.316-.466-.05-.794t.756.013q.038.025.14.088t.138.102V2.928q0-.908.593-1.552T4.145.733H20q.846 0 1.44.643t.592 1.552v8.754l.265-.19q.492-.34.757-.01t-.05.793z"/></svg>